<svg width="4" height="7" viewBox="0 0 4 7" fill="none" xmlns="http://www.w3.org/2000/svg">
<path d="M1.36363 3.12681V0.681817C1.36363 0.500988 1.2918 0.327565 1.16393 0.1997C1.03607 0.0718342 0.862646 0 0.681817 0C0.500988 0 0.327565 0.0718342 0.1997 0.1997C0.0718342 0.327565 0 0.500988 0 0.681817V3.40908L0.000682092 3.41236C0.00186654 3.59194 0.0734182 3.76391 0.199977 3.89133L2.12802 5.81971C2.19097 5.88461 2.26619 5.93634 2.34932 5.97189C2.43244 6.00744 2.52181 6.02611 2.61222 6.0268C2.70263 6.02749 2.79227 6.01019 2.87593 5.97591C2.95959 5.94164 3.0356 5.89106 3.09953 5.82714C3.16346 5.76321 3.21404 5.6872 3.24832 5.60355C3.28261 5.51989 3.29991 5.43025 3.29923 5.33984C3.29854 5.24943 3.27988 5.16006 3.24434 5.07694C3.20879 4.99381 3.15707 4.91858 3.09217 4.85563L1.36363 3.12681Z" fill="#464646"/>
</svg>
